<?xml version="1.0" encoding="UTF-8"?>
<svg id="Layer_1" data-name="Layer 1" xmlns="http://www.w3.org/2000/svg" version="1.1" viewBox="0 0 1451.34 1451.34">
  <defs>
    <style>
      .cls-1 {
        fill: #231f20;
      }

      .cls-1, .cls-2, .cls-3 {
        stroke-width: 0px;
      }

      .cls-2 {
        fill: #ed1c24;
      }

      .cls-3 {
        fill: #fff;
      }
    </style>
  </defs>
  <g>
    <path class="cls-2" d="M725.66,18.29c-7.5,0-14.92.77-22.25,2.29-250.61,13.02-450.33,244.82-451.12,529.2h-.01c0-49.31-52.67-89.29-117.64-89.29s-117.64,39.98-117.64,89.29C17,256.25,334.28,18.29,725.66,18.29Z"/>
    <path class="cls-3" d="M1434.33,549.78v1.47c0-.49-.01-.98-.03-1.47-1.2-48.52-53.39-87.58-117.61-87.58s-116.41,39.06-117.61,87.58c-.02.57-.03,1.14-.03,1.71,0-.57,0-1.14-.01-1.71h-.02c.02-.28.02-.56.02-.85,0-.86,0-1.72-.02-2.58-2.38-282.8-201.49-512.8-451.1-525.77-7.33-1.52-14.75-2.29-22.26-2.29,391.39,0,708.67,237.96,708.67,531.49Z"/>
    <path class="cls-3" d="M703.41,20.58c-121.07,25.05-215.86,252.42-215.86,529.2h-.09c-2.37-47.73-54.08-85.86-117.54-85.86s-115.18,38.13-117.55,85.86c-.05.99-.08,1.99-.08,3-.01-.43-.01-.86-.01-1.29,0-.57,0-1.14.01-1.71.79-284.38,200.51-516.18,451.12-529.2Z"/>
    <path class="cls-2" d="M725.66,20v529.78c0-49.31-53.3-89.29-119.05-89.29s-119.06,39.98-119.06,89.29c0-276.78,94.79-504.15,215.86-529.2,7.37-.39,14.79-.58,22.25-.58Z"/>
    <path class="cls-3" d="M963.77,548.07v1.71c0-49.31-53.3-89.29-119.05-89.29s-119.06,39.98-119.06,89.29V20c7.46,0,14.88.19,22.26.58,120.82,25,215.46,251.48,215.85,527.49Z"/>
    <path class="cls-2" d="M1199.02,546.35c-1.2-48.52-53.4-87.57-117.61-87.57s-117.64,39.98-117.64,89.29c-.39-276.01-95.03-502.49-215.85-527.49,249.61,12.97,448.72,242.97,451.1,525.77Z"/>
  </g>
  <g>
    <path class="cls-1" d="M254.79,553.5h-4.99v-2.5c0-47.86-51.66-86.79-115.15-86.79s-115.14,38.93-115.14,86.79h-5c0-72.19,18.85-142.2,56.01-208.11,35.86-63.59,87.19-120.69,152.55-169.71,65.31-48.98,141.34-87.43,226-114.29,87.61-27.79,180.67-41.88,276.6-41.88v5c-7.27,0-14.58.75-21.74,2.24l-.38.05c-250.85,13.03-447.97,244.39-448.75,526.71v2.49ZM134.64,459.21c55.05,0,101.56,28.43,115.72,67.08,5.59-128.7,51.96-249.8,131.91-343.28,73.46-85.89,168.74-140.99,272.25-158.37-161.87,12.05-311.94,65.15-428.45,152.54C101.93,270.28,29.77,391.91,20.52,522.29c15.81-36.6,61-63.08,114.12-63.08Z"/>
    <path class="cls-1" d="M1199.04,553.5h-2.69l.18-2.68c.02-.22.01-.44.01-.67,0-.84,0-1.68-.02-2.52-2.36-280.52-199.47-510.38-448.73-523.33l-.38-.05c-7.16-1.48-14.48-2.24-21.75-2.24v-5c95.93,0,188.99,14.09,276.6,41.88,84.66,26.85,160.69,65.31,226,114.29,65.36,49.02,116.69,106.12,152.55,169.71,37.17,65.9,56.01,135.92,56.01,208.11v1.47h-5c0-.46,0-.91-.03-1.37-.56-22.75-12.7-44.07-34.17-60.09-21.7-16.18-50.45-25.1-80.94-25.1s-59.24,8.91-80.94,25.1c-21.47,16.01-33.61,37.34-34.17,60.04-.02.57-.03,1.11-.03,1.65h-2.51v.79ZM796.83,24.64c222.64,37.4,393.7,247.41,404.2,503.09,5.63-15.32,16.44-29.32,31.73-40.72,22.56-16.83,52.37-26.09,83.93-26.09s61.37,9.27,83.93,26.09c14.1,10.51,24.39,23.24,30.32,37.18-8.68-131.1-80.94-253.45-205.68-347.01-116.51-87.38-266.58-140.48-428.44-152.54Z"/>
    <path class="cls-1" d="M249.8,554.05c-.01-.45-.01-.9-.01-1.35,0-.58,0-1.17,0-1.75.38-137.82,47.43-268.5,132.48-367.94C467.13,83.79,581.14,25.65,703.28,19.3l.64,4.94c-57.97,11.99-111.78,71.91-151.53,168.7-40.2,97.91-62.34,225.07-62.34,358.05v2.5h-4.88l-.21-2.38c-1.11-22.36-13.48-43.29-34.84-58.94-21.61-15.83-50.09-24.55-80.2-24.55s-58.6,8.72-80.21,24.55c-21.36,15.65-33.74,36.58-34.85,58.94-.05,1.03-.08,1.97-.08,2.88l-5,.06ZM369.92,462.64c31.17,0,60.7,9.06,83.16,25.51,15.38,11.27,26.36,25.19,32.18,40.47,2.34-125.46,24.33-244.59,62.51-337.57,35.46-86.35,82.24-143.88,133.48-165.01-232.98,24.39-414.6,237.79-425.9,500.63,5.99-14.51,16.68-27.73,31.41-38.52,22.46-16.45,52-25.51,83.16-25.51Z"/>
    <path class="cls-1" d="M728.16,551h-5c0-47.86-52.28-86.79-116.55-86.79s-116.56,38.93-116.56,86.79h-5c0-133.62,22.27-261.45,62.72-359.95,40.4-98.38,95.49-159.36,155.14-171.7l.38-.05c7.31-.39,14.85-.58,22.38-.58h2.5v532.28ZM606.61,459.21c55.02,0,101.63,27.76,116.55,65.7V23.73c-6.55.04-13.07.23-19.43.56-57.9,12.08-111.64,71.97-151.34,168.66-37.49,91.3-59.27,208.03-62.04,331.21,15.24-37.56,61.59-64.95,116.26-64.95Z"/>
    <path class="cls-1" d="M966.27,551h-5c0-47.86-52.28-86.79-116.55-86.79s-116.56,38.93-116.56,86.79h-5V18.72h2.5c7.53,0,15.07.2,22.39.58l.38.05c59.51,12.31,114.52,73.08,154.89,171.11,40.41,98.12,62.76,225.55,62.95,358.82v1.71ZM728.16,23.73v501.18c14.92-37.94,61.53-65.7,116.56-65.7s101.01,27.39,116.25,64.95c-2.78-123.45-24.66-240.44-62.28-331.79-39.68-96.35-93.33-156.03-151.1-168.08-6.37-.33-12.89-.52-19.44-.56Z"/>
    <path class="cls-1" d="M961.27,549.29c-.19-132.63-22.41-259.39-62.58-356.93-39.72-96.45-93.44-156.15-151.28-168.12l.64-4.94c251.9,13.09,451.09,245.12,453.47,528.24l-5,.08c-.56-22.7-12.7-44.02-34.17-60.04-21.7-16.18-50.45-25.09-80.94-25.09-63.49,0-115.14,38.93-115.14,86.79h-5ZM770.1,26.04c51.11,21.08,97.81,78.41,133.22,164.42,37.83,91.86,59.84,209.41,62.65,333.38,14.47-38.28,60.75-66.35,115.45-66.35,31.56,0,61.37,9.26,83.93,26.09,14.13,10.53,24.44,23.29,30.36,37.26-13.76-259.89-194.86-470.58-425.61-494.8Z"/>
  </g>
  <rect class="cls-1" x="723.17" y="551" width="5" height="883.33"/>
  <rect class="cls-1" x="368.84" y="425.34" width="5" height="1133.42" transform="translate(-538.74 450) rotate(-38.7)"/>
  <rect class="cls-1" x="513.86" y="990.29" width="1132.27" height="5" transform="translate(-370.23 1213.81) rotate(-51.26)"/>
  <rect class="cls-1" x="486.48" y="493.25" width="5" height="1000.61" transform="translate(-411.86 349.55) rotate(-28.23)"/>
  <rect class="cls-1" x="386.7" y="989.55" width="916.04" height="5" transform="translate(-332.7 1550.09) rotate(-74.94)"/>
  <rect class="cls-1" x="462.37" y="991.41" width="999.97" height="5" transform="translate(-368.7 1371.11) rotate(-61.75)"/>
  <rect class="cls-1" x="604.11" y="538.24" width="5" height="911.91" transform="translate(-238.55 192.89) rotate(-15.14)"/>
</svg>